<?xml version="1.0" encoding="UTF-8" standalone="no"?>
<svg xmlns:svg="http://www.w3.org/2000/svg" xmlns="http://www.w3.org/2000/svg" width="472.00134" height="241.3" xml:space="preserve"><defs id="defs52"><filter color-interpolation-filters="sRGB" id="filter3257"><feGaussianBlur stdDeviation="3.4550067" id="feGaussianBlur3259" /></filter></defs>
<g transform="translate(-0.021875,0)" id="g4230">
<g transform="translate(4,2)" id="g2206" style="opacity:0.8;fill:#000000;fill-opacity:1;filter:url(#filter3257)">
<path d="m 48.6,49 c -3,-1.8 -6.2,-4.1 -9.5,-7 -2.4,-2.1 -3.3,-3.5 -3,-4.4 0.3,-1 3.1,-1 8,0.2 5.2,0.6 10.3,1.1 15,1.3 6.7,0.3 16.9,0.4 30.4,0.2 3.5,0.2 6.2,1 8,2.2 1.8,1.2 2.7,2.6 2.5,4.2 -0.2,1.5 -1.4,2.9 -3.6,3.9 -2.5,1.2 -5.8,1.8 -10.1,2 L 57,52.4 C 54.7,52.2 52,51 48.6,49 z"
     id="path3"
     style="fill:#000000;fill-opacity:1" /><path
     d="m 104.9,71.4 c 1,-0.5 2.2,-1.2 3.6,-2 1.8,-1.2 3.5,-2 5.4,-2.5 2.9,-0.6 7,-1 12.5,-1 3.9,0 7.1,0.8 9.5,2.2 2,1.2 3.1,2.7 3.2,4.4 0.2,1.7 -0.6,3.1 -2.5,4.3 -2,1.3 -4.6,1.9 -7.8,1.9 -13.6,0.2 -23.8,0.4 -30.5,0.7 -10.4,0.3 -18.3,0.9 -24.4,1.5 2.9,3.3 4.4,5.7 4.9,7.2 0.5,1 0.4,2.1 -0.2,3.5 l -0.5,2.8 c 13.9,1.8 24.5,6.6 31.9,14.5 6.5,7.3 9.3,15.5 8.5,24.7 -1,9.2 -5.5,17 -13.5,23.2 -8.7,6.9 -19.5,10.4 -32.8,10.4 -13.7,0 -25.1,-3.5 -33.9,-10.4 -8,-6.2 -12.5,-14 -13.7,-23.2 -1.2,-9.2 1.7,-17.5 8.4,-24.4 7.5,-8 18.3,-12.9 32.9,-14.8 2,-1.7 2.9,-3.6 2.5,-6.1 -0.3,-2.4 -1.6,-4.5 -3.6,-6.6 -4.4,0 -9.2,0.2 -14.1,0.8 -5,0.3 -10.7,1 -17.1,1.7 -1.3,0.2 -2.5,0.4 -3.5,0.7 -0.6,0.3 -1.4,0.8 -2.2,1.3 -2.1,1 -4.2,1.3 -6.1,0.7 -2.9,-0.9 -8,-3.5 -16,-7.9 -4.3,-2.5 -6.2,-4.3 -5.7,-5.4 0.5,-1.2 3.4,-1.3 8.6,-0.2 10.5,1.7 22,2.6 34.7,2.6 12.1,0 30.4,-0.9 54.9,-2.6 2.7,-0.8 4.8,-1.3 6.6,-2 z M 47,110.5 c -5.4,5 -8.1,11.4 -8.1,18.8 0,7.4 2.8,13.6 8.1,18.8 5.9,5.8 14,8.7 24.4,8.7 10.2,0 18.2,-2.9 24.4,-8.7 5.4,-5.2 8.1,-11.5 8.1,-18.8 0,-7.6 -2.8,-13.8 -8.1,-18.8 -6.1,-5.8 -14.1,-8.7 -24.4,-8.7 -10.5,0 -18.5,2.8 -24.4,8.7 z"
     id="path5"
     style="fill:#000000;fill-opacity:1" /><path
     d="m 65.3,192.8 c -2.7,-1.3 -7.3,-3 -14,-4.9 -3.5,-1 -5,-2.1 -4.6,-3.2 0.2,-1.5 2.9,-2.7 8,-3.5 5.2,0 10.5,0.2 15.7,0.5 4.4,0.3 8,0.8 10.7,1.3 2.9,0.6 4.5,1.7 5.1,3 0.5,0.9 0.5,2.5 0,4.6 l -0.2,3.6 0.2,30.8 c 0,2.9 1,4.8 2.8,6.1 1.8,1.2 4.9,1.9 9.3,2.2 l 45.6,-0.5 c 3.5,-0.3 6.5,-1 8.8,-1.7 1.5,-0.3 3.1,-1 4.6,-2 2.5,-1.5 4.7,-2.5 6.9,-2.8 3.7,-0.9 9.5,-1.1 17.2,-0.8 3.7,0.2 6.9,1 9.3,2.5 2.1,1.3 3.5,3 3.9,4.9 0.3,1.7 -0.1,3.1 -1.3,4.3 -1.3,1.3 -3.2,2 -5.4,2.1 l -90.2,0 c -9,-0.2 -15.5,-1.5 -19.5,-3.9 -4.6,-2.6 -7,-6.9 -7.3,-12.7 L 70,198.3 c 0,-2 -1.6,-4 -4.7,-5.5 z"
     id="path7"
     style="fill:#000000;fill-opacity:1" /><path
     d="m 149.4,31.2 c -3.6,-2.7 -8.8,-5.4 -15.7,-8 -4.4,-1.7 -6.4,-3.2 -5.9,-4.4 0.3,-1.5 3.4,-2.4 9.1,-2.5 4.6,0.2 9.4,1 14.5,2.2 3,0.9 7.3,2.1 13,3.9 l 0.5,0.2 c 3.3,1 5.4,2.2 6.2,3.6 0.5,0.9 0.5,2.5 0,4.9 l -0.2,4.4 -0.2,88.2 13,-0.8 c 2,-0.3 3.6,-0.9 4.9,-1.5 0.9,-0.3 1.9,-1 3.2,-2 1.8,-1.2 3.6,-2 5.4,-2.5 3.2,-0.9 7.5,-1.1 13.3,-0.7 3.2,0.2 5.7,1 7.6,2.2 1.8,1.2 2.9,2.6 3,4.2 0.2,1.7 -0.4,3.1 -1.7,4.2 -1.5,1.5 -3.5,2.5 -5.9,2.8 l -42.8,0.7 c -0.2,16.1 -0.6,28.2 -1.5,36.4 -0.6,6.7 -1.7,12.1 -3,16.3 -2.5,5.4 -4.7,8.2 -6.9,8.6 -2.7,0.3 -3.9,-3.5 -3.9,-11.2 l 0,-141.7 c -0.4,-2.3 -2.4,-5 -6,-7.5 z"
     id="path9"
     style="fill:#000000;fill-opacity:1" /><path
     d="m 357.5,43.9 c -17,0.8 -30.6,1.4 -41.1,2 -2.4,0.2 -4.3,0.5 -6.1,1.3 -1,0.3 -2.2,0.9 -3.6,1.5 -2.7,1.3 -5,1.7 -7.3,1.3 -3.3,-0.9 -9.4,-3.5 -18.3,-7.9 -4.1,-2.4 -6.2,-4.1 -6.2,-5.4 0,-1.5 2.5,-1.7 7.3,-0.5 10.9,1.5 27.4,2.4 49.5,2.4 15.2,-0.2 37.4,-0.9 66.6,-1.9 1.5,-0.2 2.9,-0.5 3.9,-1 0.6,-0.2 1.7,-0.5 3,-1 1.7,-0.6 3.2,-1.1 4.6,-1.3 2.5,-0.2 6,0.1 10.7,0.7 5.6,0.9 8.8,2 9.6,3.5 0.3,1 -0.4,2.7 -2.3,4.8 -0.9,1 -1.4,1.7 -1.7,2.2 -0.5,0.6 -0.9,1.4 -1,2.2 -2.1,8.7 -5.6,19.4 -10.4,32.2 -4.1,10.7 -8.5,21.3 -13,31.9 l -7.6,0.9 c 3.2,-9.5 6.1,-20.5 8.8,-33 3,-12.2 4.8,-22 5.7,-29.2 L 410,43 c -14.2,-0.2 -31.8,0.2 -52.5,0.9 z"
     id="path11"
     style="fill:#000000;fill-opacity:1" /><path
     d="m 311.2,158.8 c -1,0.3 -2.1,0.6 -3.5,1 -2.7,1 -4.9,1.3 -6.9,1 -2.9,-0.5 -7.5,-2.4 -14.2,-5.4 -4.7,-2.7 -7.2,-4.6 -7.3,-5.9 -0.3,-1.3 1.3,-1.7 4.6,-1 11.2,1.5 27.8,2.1 49.9,2 20.5,-0.2 39.7,-1 57.7,-2.2 1,-0.2 2,-0.4 3,-0.7 0.5,0 1.2,-0.2 2,-0.5 1,-0.3 2,-0.5 3,-0.8 1.5,-0.2 3.6,-0.1 6.5,0.2 6.5,0.3 10.4,1.2 11.5,2.5 0.5,1 -0.1,2.7 -1.7,4.9 l -1.7,3.2 -8,27.4 c 6.9,1 10.6,2.8 11,5.1 0.3,2.9 -2.6,4.2 -8.6,4.2 l -92.7,1.1 -2,1.3 c -0.6,0.3 -1.1,0.6 -1.3,1 -0.3,0.3 -0.5,0.8 -0.5,1.3 l 0.2,23.5 c 0,2.1 0.5,3.6 1.7,4.6 1.2,0.9 3.3,1.3 6.4,1.3 l 65.5,0 c 3.3,-0.3 6,-0.9 8,-1.5 1.3,-0.3 2.9,-1.1 4.6,-2.2 2.1,-1.2 4.2,-1.9 6.1,-2.3 3,-0.6 7.1,-0.9 12.5,-0.5 4.6,0.3 8.2,1.2 11,2.5 2.7,1.3 4.1,2.9 4.4,4.4 0.5,1.7 0,3 -1.5,3.9 -1.7,1.5 -3.7,2.3 -6.4,2.3 l -106.7,0 c -6.5,0 -11.7,-1.2 -15.5,-3.5 -3.7,-2.5 -5.7,-6 -5.7,-10.6 l 0,-22.2 c -0.5,-1.5 -2.5,-3.1 -5.7,-4.6 -2.5,-1.5 -5.2,-2.7 -8.4,-3.5 -3.2,-1.2 -4.9,-2.1 -5.4,-3 -0.3,-1.2 2.1,-2 7.1,-2.5 7,0.2 13.7,0.9 19.9,1.9 5.6,0.9 9.2,1.7 11,2.7 l 63.3,-1.3 c 2.4,-0.2 4.3,-0.4 6.2,-0.7 1.5,-0.2 3.3,-0.5 5.4,-1 l 6.1,-1 1.5,-30.9 -82,3.5 c -1.1,0.2 -2.8,0.5 -4.4,1 z"
     id="path13"
     style="fill:#000000;fill-opacity:1" /><path
     d="m 427.2,104.4 c 1.5,-0.5 3.5,-1.3 5.9,-2.2 2.5,-1.3 4.8,-2.1 7.1,-2.5 3.3,-0.6 8,-0.5 14.2,0.2 4.1,0.3 7.4,1.3 10.1,3 2.1,1.3 3.3,2.9 3.5,4.6 0.2,2 -0.9,3.5 -3,4.4 -2.5,1.2 -5.7,1.6 -9.5,1.3 -17,-0.3 -47,0 -90,1 -43.8,0.9 -68.5,1.8 -74.8,3 -1.5,0.2 -3,0.5 -4.4,1 -0.9,0.3 -1.8,0.7 -3,1.3 -3,1.3 -6,1.7 -9.1,1 -3.9,-0.9 -11.9,-3.9 -24,-9.3 -4.7,-2.7 -6.6,-4.5 -5.8,-5.7 0.9,-1.2 3.1,-1.3 6.6,-0.5 17.3,2.5 40.5,3.6 69.7,3.6 19.4,-0.2 51.7,-1.1 96.6,-2.8 4,-0.1 7.2,-0.6 9.9,-1.4 z"
     id="path49"
     style="fill:#000000;fill-opacity:1" /></g><g
   id="g2215"><path
     d="m 48.6,49 c -3,-1.8 -6.2,-4.1 -9.5,-7 -2.4,-2.1 -3.3,-3.5 -3,-4.4 0.3,-1 3.1,-1 8,0.2 5.2,0.6 10.3,1.1 15,1.3 6.7,0.3 16.9,0.4 30.4,0.2 3.5,0.2 6.2,1 8,2.2 1.8,1.2 2.7,2.6 2.5,4.2 -0.2,1.5 -1.4,2.9 -3.6,3.9 -2.5,1.2 -5.8,1.8 -10.1,2 L 57,52.4 C 54.7,52.2 52,51 48.6,49 z"
     id="path2217"
     style="fill:#ffff00" /><path
     d="m 104.9,71.4 c 1,-0.5 2.2,-1.2 3.6,-2 1.8,-1.2 3.5,-2 5.4,-2.5 2.9,-0.6 7,-1 12.5,-1 3.9,0 7.1,0.8 9.5,2.2 2,1.2 3.1,2.7 3.2,4.4 0.2,1.7 -0.6,3.1 -2.5,4.3 -2,1.3 -4.6,1.9 -7.8,1.9 -13.6,0.2 -23.8,0.4 -30.5,0.7 -10.4,0.3 -18.3,0.9 -24.4,1.5 2.9,3.3 4.4,5.7 4.9,7.2 0.5,1 0.4,2.1 -0.2,3.5 l -0.5,2.8 c 13.9,1.8 24.5,6.6 31.9,14.5 6.5,7.3 9.3,15.5 8.5,24.7 -1,9.2 -5.5,17 -13.5,23.2 -8.7,6.9 -19.5,10.4 -32.8,10.4 -13.7,0 -25.1,-3.5 -33.9,-10.4 -8,-6.2 -12.5,-14 -13.7,-23.2 -1.2,-9.2 1.7,-17.5 8.4,-24.4 7.5,-8 18.3,-12.9 32.9,-14.8 2,-1.7 2.9,-3.6 2.5,-6.1 -0.3,-2.4 -1.6,-4.5 -3.6,-6.6 -4.4,0 -9.2,0.2 -14.1,0.8 -5,0.3 -10.7,1 -17.1,1.7 -1.3,0.2 -2.5,0.4 -3.5,0.7 -0.6,0.3 -1.4,0.8 -2.2,1.3 -2.1,1 -4.2,1.3 -6.1,0.7 -2.9,-0.9 -8,-3.5 -16,-7.9 -4.3,-2.5 -6.2,-4.3 -5.7,-5.4 0.5,-1.2 3.4,-1.3 8.6,-0.2 10.5,1.7 22,2.6 34.7,2.6 12.1,0 30.4,-0.9 54.9,-2.6 2.7,-0.8 4.8,-1.3 6.6,-2 z M 47,110.5 c -5.4,5 -8.1,11.4 -8.1,18.8 0,7.4 2.8,13.6 8.1,18.8 5.9,5.8 14,8.7 24.4,8.7 10.2,0 18.2,-2.9 24.4,-8.7 5.4,-5.2 8.1,-11.5 8.1,-18.8 0,-7.6 -2.8,-13.8 -8.1,-18.8 -6.1,-5.8 -14.1,-8.7 -24.4,-8.7 -10.5,0 -18.5,2.8 -24.4,8.7 z"
     id="path2219"
     style="fill:#ffff00" /><path
     d="m 65.3,192.8 c -2.7,-1.3 -7.3,-3 -14,-4.9 -3.5,-1 -5,-2.1 -4.6,-3.2 0.2,-1.5 2.9,-2.7 8,-3.5 5.2,0 10.5,0.2 15.7,0.5 4.4,0.3 8,0.8 10.7,1.3 2.9,0.6 4.5,1.7 5.1,3 0.5,0.9 0.5,2.5 0,4.6 l -0.2,3.6 0.2,30.8 c 0,2.9 1,4.8 2.8,6.1 1.8,1.2 4.9,1.9 9.3,2.2 l 45.6,-0.5 c 3.5,-0.3 6.5,-1 8.8,-1.7 1.5,-0.3 3.1,-1 4.6,-2 2.5,-1.5 4.7,-2.5 6.9,-2.8 3.7,-0.9 9.5,-1.1 17.2,-0.8 3.7,0.2 6.9,1 9.3,2.5 2.1,1.3 3.5,3 3.9,4.9 0.3,1.7 -0.1,3.1 -1.3,4.3 -1.3,1.3 -3.2,2 -5.4,2.1 l -90.2,0 c -9,-0.2 -15.5,-1.5 -19.5,-3.9 -4.6,-2.6 -7,-6.9 -7.3,-12.7 L 70,198.3 c 0,-2 -1.6,-4 -4.7,-5.5 z"
     id="path2221"
     style="fill:#00ff00" /><path
     d="m 149.4,31.2 c -3.6,-2.7 -8.8,-5.4 -15.7,-8 -4.4,-1.7 -6.4,-3.2 -5.9,-4.4 0.3,-1.5 3.4,-2.4 9.1,-2.5 4.6,0.2 9.4,1 14.5,2.2 3,0.9 7.3,2.1 13,3.9 l 0.5,0.2 c 3.3,1 5.4,2.2 6.2,3.6 0.5,0.9 0.5,2.5 0,4.9 l -0.2,4.4 -0.2,88.2 13,-0.8 c 2,-0.3 3.6,-0.9 4.9,-1.5 0.9,-0.3 1.9,-1 3.2,-2 1.8,-1.2 3.6,-2 5.4,-2.5 3.2,-0.9 7.5,-1.1 13.3,-0.7 3.2,0.2 5.7,1 7.6,2.2 1.8,1.2 2.9,2.6 3,4.2 0.2,1.7 -0.4,3.1 -1.7,4.2 -1.5,1.5 -3.5,2.5 -5.9,2.8 l -42.8,0.7 c -0.2,16.1 -0.6,28.2 -1.5,36.4 -0.6,6.7 -1.7,12.1 -3,16.3 -2.5,5.4 -4.7,8.2 -6.9,8.6 -2.7,0.3 -3.9,-3.5 -3.9,-11.2 l 0,-141.7 c -0.4,-2.3 -2.4,-5 -6,-7.5 z"
     id="path2223"
     style="fill:#0000ff" /><path
     d="m 357.5,43.9 c -17,0.8 -30.6,1.4 -41.1,2 -2.4,0.2 -4.3,0.5 -6.1,1.3 -1,0.3 -2.2,0.9 -3.6,1.5 -2.7,1.3 -5,1.7 -7.3,1.3 -3.3,-0.9 -9.4,-3.5 -18.3,-7.9 -4.1,-2.4 -6.2,-4.1 -6.2,-5.4 0,-1.5 2.5,-1.7 7.3,-0.5 10.9,1.5 27.4,2.4 49.5,2.4 15.2,-0.2 37.4,-0.9 66.6,-1.9 1.5,-0.2 2.9,-0.5 3.9,-1 0.6,-0.2 1.7,-0.5 3,-1 1.7,-0.6 3.2,-1.1 4.6,-1.3 2.5,-0.2 6,0.1 10.7,0.7 5.6,0.9 8.8,2 9.6,3.5 0.3,1 -0.4,2.7 -2.3,4.8 -0.9,1 -1.4,1.7 -1.7,2.2 -0.5,0.6 -0.9,1.4 -1,2.2 -2.1,8.7 -5.6,19.4 -10.4,32.2 -4.1,10.7 -8.5,21.3 -13,31.9 l -7.6,0.9 c 3.2,-9.5 6.1,-20.5 8.8,-33 3,-12.2 4.8,-22 5.7,-29.2 L 410,43 c -14.2,-0.2 -31.8,0.2 -52.5,0.9 z"
     id="path2225"
     style="fill:#ffff00" /><path
     d="m 311.2,158.8 c -1,0.3 -2.1,0.6 -3.5,1 -2.7,1 -4.9,1.3 -6.9,1 -2.9,-0.5 -7.5,-2.4 -14.2,-5.4 -4.7,-2.7 -7.2,-4.6 -7.3,-5.9 -0.3,-1.3 1.3,-1.7 4.6,-1 11.2,1.5 27.8,2.1 49.9,2 20.5,-0.2 39.7,-1 57.7,-2.2 1,-0.2 2,-0.4 3,-0.7 0.5,0 1.2,-0.2 2,-0.5 1,-0.3 2,-0.5 3,-0.8 1.5,-0.2 3.6,-0.1 6.5,0.2 6.5,0.3 10.4,1.2 11.5,2.5 0.5,1 -0.1,2.7 -1.7,4.9 l -1.7,3.2 -8,27.4 c 6.9,1 10.6,2.8 11,5.1 0.3,2.9 -2.6,4.2 -8.6,4.2 l -92.7,1.1 -2,1.3 c -0.6,0.3 -1.1,0.6 -1.3,1 -0.3,0.3 -0.5,0.8 -0.5,1.3 l 0.2,23.5 c 0,2.1 0.5,3.6 1.7,4.6 1.2,0.9 3.3,1.3 6.4,1.3 l 65.5,0 c 3.3,-0.3 6,-0.9 8,-1.5 1.3,-0.3 2.9,-1.1 4.6,-2.2 2.1,-1.2 4.2,-1.9 6.1,-2.3 3,-0.6 7.1,-0.9 12.5,-0.5 4.6,0.3 8.2,1.2 11,2.5 2.7,1.3 4.1,2.9 4.4,4.4 0.5,1.7 0,3 -1.5,3.9 -1.7,1.5 -3.7,2.3 -6.4,2.3 l -106.7,0 c -6.5,0 -11.7,-1.2 -15.5,-3.5 -3.7,-2.5 -5.7,-6 -5.7,-10.6 l 0,-22.2 c -0.5,-1.5 -2.5,-3.1 -5.7,-4.6 -2.5,-1.5 -5.2,-2.7 -8.4,-3.5 -3.2,-1.2 -4.9,-2.1 -5.4,-3 -0.3,-1.2 2.1,-2 7.1,-2.5 7,0.2 13.7,0.9 19.9,1.9 5.6,0.9 9.2,1.7 11,2.7 l 63.3,-1.3 c 2.4,-0.2 4.3,-0.4 6.2,-0.7 1.5,-0.2 3.3,-0.5 5.4,-1 l 6.1,-1 1.5,-30.9 -82,3.5 c -1.1,0.2 -2.8,0.5 -4.4,1 z"
     id="path2227"
     style="fill:#00ff00" /><path
     d="m 427.2,104.4 c 1.5,-0.5 3.5,-1.3 5.9,-2.2 2.5,-1.3 4.8,-2.1 7.1,-2.5 3.3,-0.6 8,-0.5 14.2,0.2 4.1,0.3 7.4,1.3 10.1,3 2.1,1.3 3.3,2.9 3.5,4.6 0.2,2 -0.9,3.5 -3,4.4 -2.5,1.2 -5.7,1.6 -9.5,1.3 -17,-0.3 -47,0 -90,1 -43.8,0.9 -68.5,1.8 -74.8,3 -1.5,0.2 -3,0.5 -4.4,1 -0.9,0.3 -1.8,0.7 -3,1.3 -3,1.3 -6,1.7 -9.1,1 -3.9,-0.9 -11.9,-3.9 -24,-9.3 -4.7,-2.7 -6.6,-4.5 -5.8,-5.7 0.9,-1.2 3.1,-1.3 6.6,-0.5 17.3,2.5 40.5,3.6 69.7,3.6 19.4,-0.2 51.7,-1.1 96.6,-2.8 4,-0.1 7.2,-0.6 9.9,-1.4 z"
     id="path2229"
     style="fill:#0000ff" /></g><text
   x="62.447742"
   y="30.012438"
   id="text2850"
   xml:space="preserve"
   style="font-size:18px;font-style:normal;font-weight:normal;fill:#000000;fill-opacity:1;stroke:none;font-family:Arial Black;-inkscape-font-specification:Arial Black"><tspan
     x="62.447742"
     y="30.012438"
     id="tspan2852">h</tspan></text>
<text
   x="120.07163"
   y="226.0937"
   id="text2854"
   xml:space="preserve"
   style="font-size:18px;font-style:normal;font-weight:normal;fill:#000000;fill-opacity:1;stroke:none;font-family:Arial Black;-inkscape-font-specification:Arial Black"><tspan
     x="120.07163"
     y="226.0937"
     id="tspan2856">n</tspan></text>
<text
   x="152.48506"
   y="12.004977"
   id="text2858"
   xml:space="preserve"
   style="font-size:18px;font-style:normal;font-weight:normal;fill:#000000;fill-opacity:1;stroke:none;font-family:Arial Black;-inkscape-font-specification:Arial Black"><tspan
     x="152.48506"
     y="12.004977"
     id="tspan2860">a</tspan></text>
<text
   x="339.36252"
   y="27.211281"
   id="text2870"
   xml:space="preserve"
   style="font-size:18px;font-style:normal;font-weight:normal;fill:#000000;fill-opacity:1;stroke:none;font-family:Arial Black;-inkscape-font-specification:Arial Black"><tspan
     x="339.36252"
     y="27.211281"
     id="tspan2872">g</tspan></text>
<text
   x="354.96896"
   y="30.012442"
   id="text2874"
   xml:space="preserve"
   style="font-size:18px;font-style:normal;font-weight:normal;fill:#000000;fill-opacity:1;stroke:none;font-family:Arial Black;-inkscape-font-specification:Arial Black"><tspan
     x="354.96896"
     y="30.012442"
     id="tspan2876"
     style="fill:#666666">/k</tspan></text>
<text
   x="339.36252"
   y="100.04147"
   id="text2878"
   xml:space="preserve"
   style="font-size:18px;font-style:normal;font-weight:normal;fill:#000000;fill-opacity:1;stroke:none;font-family:Arial Black;-inkscape-font-specification:Arial Black"><tspan
     x="339.36252"
     y="100.04147"
     id="tspan2880">eu</tspan></text>
<text
   x="360.17114"
   y="220.09122"
   id="text2886"
   xml:space="preserve"
   style="font-size:18px;font-style:normal;font-weight:normal;fill:#000000;fill-opacity:1;stroke:none;font-family:Arial Black;-inkscape-font-specification:Arial Black"><tspan
     x="360.17114"
     y="220.09122"
     id="tspan2888">l</tspan></text>
<text
   x="344.96478"
   y="220.09122"
   id="text2890"
   xml:space="preserve"
   style="font-size:18px;font-style:normal;font-weight:normal;fill:#000000;fill-opacity:1;stroke:none;font-family:Arial Black;-inkscape-font-specification:Arial Black"><tspan
     x="344.96478"
     y="220.09122"
     id="tspan2892"
     style="fill:#666666">r/</tspan></text>
</g>
</svg>
